# xmcd
#
# Track frame offsets: 
#        150
#        6831
#        27040
#        61724
#        64992
#        107576
#        120289
#        126301
#        151066
#        169540
#        193399
#        205611
#        221389
#
# Disc length: 3254 seconds
#
# Revision: 0
# Processed by: cddbd v1.5.2PL0 Copyright (c) Steve Scherf et al.
# Submitted via: ExactAudioCopy v1.3
#
DISCID=a40cb40d
DTITLE=Buddy Guy - 6Th Annual Chicago Blues Festival Petrillo Music Sh
DTITLE=ell ( Grant Park, Chicago)
DYEAR=1989
DGENRE=Chicago Blues - Electric Blues - Modern Electric Blues
TTITLE0=Intro
TTITLE1=Look Over Yonder
TTITLE2=Five Long Years
TTITLE3=Gonna Move To The Outskirts Of To
TTITLE4=Knock On Wood   I Feel Alright
TTITLE5=Woke Up This Morning
TTITLE6=Dixon Tease
TTITLE7=I Lost My Heart And My Head Went
TTITLE8=Rock Me   Sun Goin Down
TTITLE9=All Your Love   Come On Down
TTITLE10=Sunshine Of Your Love   Stoemy Mo
TTITLE11=Goin Down
TTITLE12=Interview
EXTD=
EXTT0=
EXTT1=
EXTT2=
EXTT3=
EXTT4=
EXTT5=
EXTT6=
EXTT7=
EXTT8=
EXTT9=
EXTT10=
EXTT11=
EXTT12=
PLAYORDER=
